# xmcd
#
# Track frame offsets:
#	150
#	14985
#	37454
#	53826
#	83695
#	103064
#	123373
#	138685
#	158204
#	169401
#	189258
#	218028
#	242959
#	264179
#	282802
#
# Disc length: 4027 seconds
#
# Revision: 1
# Processed by: cddbd v1.5.2PL0 Copyright (c) Steve Scherf et al.
# Submitted via: audiograbber 1.83.01
#
DISCID=df0fb90f
DTITLE=Djordje Balasevic - Portret 2
DYEAR=2000
DGENRE=Pop
TTITLE0=Devojka sa èardas nogama
TTITLE1=Princezo, javi se
TTITLE2=Moja je draga vestica
TTITLE3=Ne lomite mi bagrenje
TTITLE4=Protina kæi
TTITLE5=Ne volim januar
TTITLE6=Zivot je more
TTITLE7=Neki novi klinci
TTITLE8=Panonski mornar
TTITLE9=Noæ kad je Tisa nadosla
TTITLE10=Boze, boze
TTITLE11=Namæor
TTITLE12=Krivi smo mi
TTITLE13=Marim ja
TTITLE14=Doðoska
EXTD=
EXTT0=
EXTT1=
EXTT2=
EXTT3=
EXTT4=
EXTT5=
EXTT6=
EXTT7=
EXTT8=
EXTT9=
EXTT10=
EXTT11=
EXTT12=
EXTT13=
EXTT14=
PLAYORDER=
